<?xml version="1.0" standalone="no"?>
<!DOCTYPE svg PUBLIC "-//W3C//DTD SVG 20010904//EN"
 "http://www.w3.org/TR/2001/REC-SVG-20010904/DTD/svg10.dtd">
<svg version="1.0" xmlns="http://www.w3.org/2000/svg"
 width="191.000000pt" height="60.000000pt" viewBox="0 0 191.000000 60.000000"
 preserveAspectRatio="xMidYMid meet">

<g transform="translate(0.000000,60.000000) scale(0.100000,-0.100000)"
fill="#0065FC" stroke="none">
<path d="M10 311 l0 -291 118 0 c99 0 122 3 150 20 37 23 69 71 78 118 7 38
-17 111 -46 137 -18 16 -18 17 1 49 31 54 34 114 7 166 -35 68 -72 84 -200 89
l-108 3 0 -291z m229 185 c33 -35 32 -89 -2 -123 -22 -23 -37 -28 -92 -31
l-65 -4 0 91 0 91 68 0 c60 0 72 -3 91 -24z m3 -237 c11 -6 26 -26 34 -45 12
-29 12 -39 0 -68 -19 -46 -42 -56 -125 -56 l-71 0 0 90 0 90 71 0 c39 0 79 -5
91 -11z"/>
<path d="M1460 310 l0 -290 35 0 35 0 0 75 c0 41 3 75 8 75 4 0 34 -34 67 -75
60 -75 60 -75 109 -75 44 0 47 1 35 17 -8 9 -54 64 -102 122 l-88 106 103 97
103 97 -55 1 c-54 0 -57 -1 -110 -55 -30 -30 -58 -55 -62 -55 -4 0 -8 56 -8
125 l0 125 -35 0 -35 0 0 -290z"/>
<path d="M1847 589 c-22 -13 -22 -58 -1 -66 39 -15 73 46 37 65 -12 7 -25 7
-36 1z"/>
<path d="M540 418 c-119 -72 -141 -232 -46 -336 64 -71 184 -88 269 -39 69 41
101 94 105 178 4 59 1 74 -24 119 -60 110 -194 144 -304 78z m188 -58 c70 -43
93 -136 50 -200 -35 -51 -71 -73 -121 -73 -84 0 -147 62 -147 144 0 114 123
187 218 129z"/>
<path d="M1044 420 c-58 -33 -88 -74 -103 -141 -14 -62 -4 -112 33 -167 86
-129 271 -131 360 -4 25 35 31 55 34 112 4 60 1 74 -24 120 -58 107 -191 143
-300 80z m184 -60 c70 -43 93 -136 50 -200 -35 -51 -71 -73 -121 -73 -82 0
-147 63 -147 144 0 114 123 187 218 129z"/>
<path d="M1120 310 c-7 -14 -7 -26 -1 -39 6 -11 7 -38 2 -70 l-8 -51 42 0 41
0 -6 55 c-3 30 -2 61 2 70 13 22 -9 55 -37 55 -14 0 -29 -8 -35 -20z"/>
<path d="M1830 235 l0 -215 35 0 35 0 0 215 0 215 -35 0 -35 0 0 -215z"/>
</g>
</svg>
