<svg id="svg" version="1.1" xmlns="http://www.w3.org/2000/svg" xmlns:xlink="http://www.w3.org/1999/xlink" width="400" height="393.98496240601503" viewBox="0, 0, 400,393.98496240601503"><g id="svgg"><path id="path0" d="M124.885 55.433 C 123.328 55.849,123.350 53.748,123.351 204.578 C 123.353 348.050,123.366 350.563,124.113 351.788 C 124.800 352.916,125.111 353.059,127.363 353.290 C 132.213 353.785,232.485 353.305,235.271 352.772 C 236.680 352.503,240.759 351.867,244.335 351.360 C 247.911 350.852,251.813 350.081,253.005 349.645 C 254.197 349.210,256.325 348.644,257.734 348.388 C 259.143 348.132,260.828 347.653,261.478 347.323 C 263.683 346.204,267.600 344.828,268.580 344.828 C 269.117 344.828,269.557 344.663,269.557 344.462 C 269.557 344.261,270.754 343.547,272.217 342.876 C 273.680 342.205,275.320 341.389,275.862 341.063 C 276.404 340.737,277.823 339.963,279.015 339.342 C 280.207 338.722,281.520 337.840,281.933 337.383 C 282.346 336.926,283.019 336.552,283.429 336.552 C 283.839 336.552,284.575 336.153,285.066 335.665 C 286.155 334.582,288.727 332.611,289.050 332.611 C 289.179 332.611,289.856 332.068,290.554 331.405 C 292.654 329.409,295.966 326.700,296.305 326.700 C 296.479 326.700,296.825 326.254,297.074 325.708 C 297.322 325.163,297.968 324.516,298.509 324.269 C 299.050 324.023,299.600 323.483,299.731 323.069 C 299.862 322.655,300.475 321.751,301.093 321.060 C 303.765 318.069,306.119 315.009,306.373 314.197 C 306.524 313.715,307.043 313.006,307.526 312.621 C 308.009 312.236,308.654 311.300,308.959 310.542 C 309.263 309.783,309.834 308.631,310.226 307.980 C 310.619 307.330,311.214 306.177,311.550 305.419 C 311.886 304.660,312.672 302.975,313.297 301.675 C 313.923 300.374,314.905 297.803,315.479 295.961 C 316.054 294.118,316.755 292.248,317.036 291.805 C 317.317 291.362,317.758 289.323,318.015 287.273 C 318.271 285.224,318.823 281.381,319.241 278.734 C 320.048 273.621,320.244 265.400,319.624 262.660 C 319.428 261.793,319.072 258.956,318.831 256.355 C 318.281 250.395,317.782 247.733,316.820 245.620 C 316.401 244.701,315.683 242.573,315.223 240.891 C 314.763 239.209,314.068 237.381,313.678 236.830 C 313.287 236.278,312.515 234.860,311.962 233.677 C 310.903 231.416,310.257 230.320,309.484 229.472 C 309.227 229.191,308.896 228.578,308.747 228.110 C 308.598 227.642,307.966 226.829,307.342 226.304 C 306.718 225.778,306.207 225.180,306.207 224.973 C 306.207 224.470,300.391 217.827,299.566 217.388 C 299.209 217.198,298.254 216.400,297.444 215.615 C 293.790 212.073,291.576 210.389,288.276 208.643 C 287.192 208.069,285.862 207.191,285.320 206.691 C 284.778 206.192,283.606 205.590,282.714 205.354 C 281.823 205.118,280.452 204.490,279.668 203.958 C 278.884 203.426,277.485 202.789,276.560 202.543 C 275.634 202.297,273.635 201.592,272.118 200.976 C 270.601 200.360,267.852 199.566,266.010 199.211 C 257.616 197.596,253.162 195.413,254.222 193.433 C 255.298 191.422,257.742 189.642,260.397 188.935 C 261.859 188.547,263.586 187.850,264.236 187.388 C 264.887 186.925,266.217 186.215,267.192 185.810 C 268.167 185.405,269.294 184.797,269.696 184.458 C 270.098 184.119,271.370 183.310,272.523 182.660 C 275.778 180.825,279.015 178.572,279.015 178.143 C 279.015 177.929,279.556 177.474,280.218 177.132 C 281.806 176.311,290.615 167.484,291.441 165.887 C 291.797 165.200,292.412 164.553,292.808 164.449 C 293.205 164.345,293.647 163.790,293.790 163.214 C 293.934 162.638,294.747 161.264,295.597 160.161 C 296.447 159.057,297.143 157.983,297.143 157.775 C 297.143 157.566,297.650 156.595,298.271 155.617 C 298.891 154.639,299.625 153.141,299.901 152.289 C 300.177 151.436,300.849 149.852,301.393 148.768 C 301.938 147.685,302.792 144.995,303.291 142.791 C 303.790 140.588,304.490 138.105,304.845 137.274 C 306.273 133.941,306.482 115.592,305.147 110.936 C 304.836 109.852,304.082 107.103,303.472 104.828 C 302.862 102.552,301.809 99.537,301.132 98.128 C 300.456 96.719,299.902 95.369,299.902 95.127 C 299.902 94.885,299.577 94.265,299.180 93.748 C 298.783 93.231,298.032 92.010,297.511 91.034 C 296.990 90.059,295.985 88.596,295.277 87.782 C 294.569 86.969,293.990 86.154,293.990 85.971 C 293.990 85.788,293.414 85.028,292.709 84.282 C 292.005 83.536,290.519 81.957,289.408 80.773 C 286.521 77.698,281.401 73.300,280.709 73.300 C 280.506 73.300,279.396 72.597,278.244 71.737 C 277.091 70.877,275.567 69.982,274.858 69.747 C 274.148 69.513,273.471 69.071,273.354 68.766 C 273.167 68.278,268.474 65.813,267.732 65.813 C 267.578 65.813,267.171 65.574,266.829 65.282 C 266.487 64.989,265.320 64.518,264.236 64.234 C 263.153 63.950,261.202 63.235,259.901 62.645 C 254.944 60.397,245.783 58.238,238.227 57.538 C 235.626 57.296,232.033 56.837,230.244 56.517 C 224.004 55.400,128.674 54.419,124.885 55.433 M218.924 91.000 C 220.437 91.415,223.094 91.961,224.828 92.213 C 229.073 92.831,231.259 93.383,232.901 94.250 C 233.656 94.649,234.427 94.975,234.613 94.975 C 235.840 94.975,239.390 96.386,240.615 97.359 C 241.420 97.999,242.390 98.522,242.770 98.522 C 244.153 98.522,251.825 105.648,253.638 108.618 C 254.095 109.365,254.833 110.370,255.278 110.851 C 260.041 115.990,261.985 138.111,258.509 147.626 C 258.042 148.905,257.322 151.033,256.908 152.357 C 256.493 153.680,255.630 155.486,254.990 156.371 C 254.349 157.255,253.552 158.567,253.220 159.285 C 252.299 161.272,247.360 167.050,245.029 168.867 C 244.751 169.084,243.698 169.926,242.688 170.739 C 241.679 171.552,240.700 172.217,240.514 172.217 C 240.328 172.217,239.232 172.926,238.078 173.793 C 236.924 174.660,235.800 175.369,235.579 175.369 C 235.358 175.369,233.633 176.065,231.745 176.915 C 229.856 177.766,227.616 178.587,226.767 178.741 C 225.917 178.896,224.765 179.253,224.206 179.535 C 220.116 181.602,175.760 183.668,170.012 182.058 C 165.341 180.751,165.537 182.753,165.529 136.355 C 165.521 93.044,165.448 94.459,167.822 91.888 L 169.337 90.246 192.755 90.246 C 214.599 90.246,216.358 90.297,218.924 91.000 M219.113 217.458 C 228.679 218.398,235.906 219.609,237.819 220.592 C 238.462 220.922,240.235 221.448,241.760 221.762 C 243.285 222.075,245.507 222.844,246.700 223.470 C 247.892 224.097,249.718 224.977,250.757 225.426 C 251.797 225.875,252.994 226.590,253.417 227.013 C 253.841 227.437,254.436 227.783,254.741 227.783 C 255.957 227.783,264.289 235.100,265.287 237.044 C 265.732 237.911,266.492 239.064,266.976 239.606 C 267.460 240.148,268.533 241.833,269.360 243.350 C 270.710 245.826,271.495 248.001,273.344 254.384 C 275.017 260.160,274.862 275.783,273.079 281.043 C 272.612 282.420,271.995 284.441,271.708 285.534 C 271.114 287.793,267.285 295.567,266.766 295.567 C 266.578 295.567,266.136 296.143,265.783 296.847 C 265.430 297.552,264.713 298.571,264.189 299.113 C 263.665 299.655,262.752 300.730,262.160 301.501 C 260.664 303.450,256.122 307.229,254.420 307.940 C 253.642 308.265,253.005 308.703,253.005 308.913 C 253.005 309.452,246.576 312.809,243.744 313.749 C 242.443 314.181,240.670 314.863,239.803 315.266 C 238.936 315.668,236.276 316.291,233.892 316.651 C 231.507 317.010,229.146 317.469,228.644 317.671 C 225.442 318.955,219.903 319.212,195.458 319.212 C 168.159 319.212,169.373 319.331,167.068 316.421 L 165.714 314.712 165.714 268.390 C 165.714 242.914,165.840 221.622,165.995 221.076 C 166.385 219.694,168.523 217.607,169.999 217.168 C 171.636 216.681,213.737 216.929,219.113 217.458 " stroke="none" fill="#f9fbfc" fill-rule="evenodd"></path><path id="path1" d="M125.911 53.568 C 123.641 53.862,122.356 54.479,121.782 55.550 C 121.214 56.611,121.221 350.955,121.789 352.585 C 122.711 355.229,119.197 355.074,178.043 355.073 C 222.239 355.073,232.024 354.975,236.453 354.489 C 245.124 353.539,252.438 352.085,258.446 350.117 C 260.710 349.375,262.772 348.768,263.027 348.768 C 263.396 348.768,267.507 347.100,273.103 344.679 C 273.429 344.538,274.581 343.926,275.665 343.318 C 276.749 342.709,278.433 341.789,279.409 341.272 C 280.384 340.755,282.131 339.703,283.291 338.935 C 284.451 338.166,285.975 337.182,286.679 336.749 C 287.383 336.315,288.577 335.429,289.334 334.778 C 290.091 334.128,292.437 332.177,294.547 330.443 C 311.680 316.365,322.650 291.017,321.835 267.389 C 321.528 258.488,320.960 253.174,320.030 250.503 C 319.589 249.236,318.948 246.842,318.606 245.183 C 316.010 232.581,304.116 216.657,290.725 207.855 C 288.605 206.461,286.740 205.320,286.581 205.320 C 286.423 205.320,285.076 204.609,283.589 203.740 C 282.101 202.871,279.621 201.700,278.078 201.139 C 270.708 198.459,267.372 197.383,264.737 196.835 C 260.903 196.038,258.291 195.154,257.715 194.460 C 256.993 193.590,260.083 191.040,263.448 189.726 C 264.966 189.134,267.675 187.790,269.470 186.739 C 271.265 185.688,272.804 184.828,272.891 184.828 C 273.351 184.828,279.231 180.576,282.585 177.818 C 296.581 166.309,307.389 145.751,307.389 130.637 C 307.389 129.310,307.586 127.171,307.827 125.885 C 308.727 121.074,306.670 107.080,304.076 100.370 C 302.210 95.540,299.765 90.452,299.120 90.054 C 298.896 89.915,298.381 89.114,297.974 88.272 C 295.858 83.891,281.194 69.760,278.758 69.753 C 278.574 69.752,277.094 68.866,275.468 67.783 C 273.842 66.701,272.376 65.814,272.209 65.814 C 272.042 65.813,271.244 65.410,270.436 64.918 C 268.866 63.962,264.864 62.320,259.113 60.272 C 257.163 59.578,254.889 58.763,254.060 58.462 C 253.231 58.161,251.192 57.726,249.528 57.495 C 247.864 57.264,244.640 56.651,242.365 56.133 C 238.259 55.199,230.226 54.417,216.355 53.602 C 208.901 53.164,129.264 53.134,125.911 53.568 M219.998 55.563 C 223.844 55.767,228.454 56.196,230.244 56.517 C 232.033 56.837,235.626 57.296,238.227 57.538 C 245.783 58.238,254.944 60.397,259.901 62.645 C 261.202 63.235,263.153 63.950,264.236 64.234 C 265.320 64.518,266.487 64.989,266.829 65.282 C 267.171 65.574,267.578 65.813,267.732 65.813 C 268.474 65.813,273.167 68.278,273.354 68.766 C 273.471 69.071,274.148 69.513,274.858 69.747 C 275.567 69.982,277.091 70.877,278.244 71.737 C 279.396 72.597,280.506 73.300,280.709 73.300 C 281.401 73.300,286.521 77.698,289.408 80.773 C 290.519 81.957,292.005 83.536,292.709 84.282 C 293.414 85.028,293.990 85.788,293.990 85.971 C 293.990 86.154,294.569 86.969,295.277 87.782 C 295.985 88.596,296.990 90.059,297.511 91.034 C 298.032 92.010,298.783 93.231,299.180 93.748 C 299.577 94.265,299.902 94.885,299.902 95.127 C 299.902 95.369,300.456 96.719,301.132 98.128 C 301.809 99.537,302.862 102.552,303.472 104.828 C 304.082 107.103,304.836 109.852,305.147 110.936 C 306.482 115.592,306.273 133.941,304.845 137.274 C 304.490 138.105,303.790 140.588,303.291 142.791 C 302.792 144.995,301.938 147.685,301.393 148.768 C 300.849 149.852,300.177 151.436,299.901 152.289 C 299.625 153.141,298.891 154.639,298.271 155.617 C 297.650 156.595,297.143 157.566,297.143 157.775 C 297.143 157.983,296.447 159.057,295.597 160.161 C 294.747 161.264,293.934 162.638,293.790 163.214 C 293.647 163.790,293.205 164.345,292.808 164.449 C 292.412 164.553,291.797 165.200,291.441 165.887 C 290.615 167.484,281.806 176.311,280.218 177.132 C 279.556 177.474,279.015 177.929,279.015 178.143 C 279.015 178.572,275.778 180.825,272.523 182.660 C 271.370 183.310,270.098 184.119,269.696 184.458 C 269.294 184.797,268.167 185.405,267.192 185.810 C 266.217 186.215,264.887 186.925,264.236 187.388 C 263.586 187.850,261.859 188.547,260.397 188.935 C 257.742 189.642,255.298 191.422,254.222 193.433 C 253.162 195.413,257.616 197.596,266.010 199.211 C 267.852 199.566,270.601 200.360,272.118 200.976 C 273.635 201.592,275.634 202.297,276.560 202.543 C 277.485 202.789,278.884 203.426,279.668 203.958 C 280.452 204.490,281.823 205.118,282.714 205.354 C 283.606 205.590,284.778 206.192,285.320 206.691 C 285.862 207.191,287.192 208.069,288.276 208.643 C 291.576 210.389,293.790 212.073,297.444 215.615 C 298.254 216.400,299.209 217.198,299.566 217.388 C 300.391 217.827,306.207 224.470,306.207 224.973 C 306.207 225.180,306.718 225.778,307.342 226.304 C 307.966 226.829,308.598 227.642,308.747 228.110 C 308.896 228.578,309.227 229.191,309.484 229.472 C 310.257 230.320,310.903 231.416,311.962 233.677 C 312.515 234.860,313.287 236.278,313.678 236.830 C 314.068 237.381,314.763 239.209,315.223 240.891 C 315.683 242.573,316.401 244.701,316.820 245.620 C 317.782 247.733,318.281 250.395,318.831 256.355 C 319.072 258.956,319.428 261.793,319.624 262.660 C 320.244 265.400,320.048 273.621,319.241 278.734 C 318.823 281.381,318.271 285.224,318.015 287.273 C 317.758 289.323,317.317 291.362,317.036 291.805 C 316.755 292.248,316.054 294.118,315.479 295.961 C 314.905 297.803,313.923 300.374,313.297 301.675 C 312.672 302.975,311.886 304.660,311.550 305.419 C 311.214 306.177,310.619 307.330,310.226 307.980 C 309.834 308.631,309.263 309.783,308.959 310.542 C 308.654 311.300,308.009 312.236,307.526 312.621 C 307.043 313.006,306.524 313.715,306.373 314.197 C 306.119 315.009,303.765 318.069,301.093 321.060 C 300.475 321.751,299.862 322.655,299.731 323.069 C 299.600 323.483,299.050 324.023,298.509 324.269 C 297.968 324.516,297.322 325.163,297.074 325.708 C 296.825 326.254,296.479 326.700,296.305 326.700 C 295.966 326.700,292.654 329.409,290.554 331.405 C 289.856 332.068,289.179 332.611,289.050 332.611 C 288.727 332.611,286.155 334.582,285.066 335.665 C 284.575 336.153,283.839 336.552,283.429 336.552 C 283.019 336.552,282.346 336.926,281.933 337.383 C 281.520 337.840,280.207 338.722,279.015 339.342 C 277.823 339.963,276.404 340.737,275.862 341.063 C 275.320 341.389,273.680 342.205,272.217 342.876 C 270.754 343.547,269.557 344.261,269.557 344.462 C 269.557 344.663,269.117 344.828,268.580 344.828 C 267.600 344.828,263.683 346.204,261.478 347.323 C 260.828 347.653,259.143 348.132,257.734 348.388 C 256.325 348.644,254.197 349.210,253.005 349.645 C 251.813 350.081,247.911 350.852,244.335 351.360 C 240.759 351.867,236.680 352.503,235.271 352.772 C 232.485 353.305,132.213 353.785,127.363 353.290 C 125.111 353.059,124.800 352.916,124.113 351.788 C 123.366 350.563,123.353 348.050,123.351 204.578 C 123.350 53.748,123.328 55.849,124.885 55.433 C 126.180 55.087,213.272 55.205,219.998 55.563 M167.822 91.888 C 165.448 94.459,165.521 93.044,165.529 136.355 C 165.537 182.753,165.341 180.751,170.012 182.058 C 175.760 183.668,220.116 181.602,224.206 179.535 C 224.765 179.253,225.917 178.896,226.767 178.741 C 227.616 178.587,229.856 177.766,231.745 176.915 C 233.633 176.065,235.358 175.369,235.579 175.369 C 235.800 175.369,236.924 174.660,238.078 173.793 C 239.232 172.926,240.328 172.217,240.514 172.217 C 240.700 172.217,241.679 171.552,242.688 170.739 C 243.698 169.926,244.751 169.084,245.029 168.867 C 247.360 167.050,252.299 161.272,253.220 159.285 C 253.552 158.567,254.349 157.255,254.990 156.371 C 255.630 155.486,256.493 153.680,256.908 152.357 C 257.322 151.033,258.042 148.905,258.509 147.626 C 261.985 138.111,260.041 115.990,255.278 110.851 C 254.833 110.370,254.095 109.365,253.638 108.618 C 251.825 105.648,244.153 98.522,242.770 98.522 C 242.390 98.522,241.420 97.999,240.615 97.359 C 239.390 96.386,235.840 94.975,234.613 94.975 C 234.427 94.975,233.656 94.649,232.901 94.250 C 231.259 93.383,229.073 92.831,224.828 92.213 C 223.094 91.961,220.437 91.415,218.924 91.000 C 216.358 90.297,214.599 90.246,192.755 90.246 L 169.337 90.246 167.822 91.888 M222.209 93.527 C 251.778 98.981,264.792 119.418,256.508 147.386 C 252.012 162.566,237.619 175.488,222.463 177.952 C 221.596 178.093,219.202 178.650,217.143 179.191 C 213.429 180.165,213.226 180.175,191.806 180.386 L 170.214 180.600 169.262 179.705 C 167.489 178.040,167.452 177.066,167.572 134.870 L 167.685 95.027 168.822 93.840 C 170.359 92.236,169.214 92.301,194.286 92.398 C 216.502 92.484,216.564 92.486,222.209 93.527 M169.999 217.168 C 168.523 217.607,166.385 219.694,165.995 221.076 C 165.840 221.622,165.714 242.914,165.714 268.390 L 165.714 314.712 167.068 316.421 C 169.373 319.331,168.159 319.212,195.458 319.212 C 219.903 319.212,225.442 318.955,228.644 317.671 C 229.146 317.469,231.507 317.010,233.892 316.651 C 236.276 316.291,238.936 315.668,239.803 315.266 C 240.670 314.863,242.443 314.181,243.744 313.749 C 246.576 312.809,253.005 309.452,253.005 308.913 C 253.005 308.703,253.642 308.265,254.420 307.940 C 256.122 307.229,260.664 303.450,262.160 301.501 C 262.752 300.730,263.665 299.655,264.189 299.113 C 264.713 298.571,265.430 297.552,265.783 296.847 C 266.136 296.143,266.578 295.567,266.766 295.567 C 267.285 295.567,271.114 287.793,271.708 285.534 C 271.995 284.441,272.612 282.420,273.079 281.043 C 274.862 275.783,275.017 260.160,273.344 254.384 C 271.495 248.001,270.710 245.826,269.360 243.350 C 268.533 241.833,267.460 240.148,266.976 239.606 C 266.492 239.064,265.732 237.911,265.287 237.044 C 264.289 235.100,255.957 227.783,254.741 227.783 C 254.436 227.783,253.841 227.437,253.417 227.013 C 252.994 226.590,251.797 225.875,250.757 225.426 C 249.718 224.977,247.892 224.097,246.700 223.470 C 245.507 222.844,243.285 222.075,241.760 221.762 C 240.235 221.448,238.462 220.922,237.819 220.592 C 235.906 219.609,228.679 218.398,219.113 217.458 C 213.737 216.929,171.636 216.681,169.999 217.168 M220.099 219.444 C 225.270 219.847,235.216 221.615,239.212 222.841 C 242.072 223.719,248.783 226.371,249.852 227.045 C 250.394 227.387,251.724 228.164,252.808 228.772 C 256.946 231.095,263.434 237.013,264.901 239.803 C 265.357 240.670,266.127 241.911,266.614 242.562 C 274.263 252.791,274.584 279.785,267.192 291.232 C 266.982 291.557,266.334 292.621,265.752 293.596 C 262.653 298.786,254.931 306.416,251.500 307.678 C 251.136 307.813,250.305 308.312,249.655 308.788 C 245.550 311.793,234.030 315.344,225.492 316.236 C 217.251 317.096,172.104 317.140,170.068 316.290 C 167.546 315.236,167.696 317.977,167.562 270.542 C 167.412 217.705,167.287 219.507,171.148 218.992 C 173.716 218.650,214.765 219.029,220.099 219.444 " stroke="none" fill="#a0e1fc" fill-rule="evenodd"></path><path id="path2" d="M17.340 0.745 C 17.340 1.511,15.690 2.215,14.957 1.762 C 14.750 1.634,14.581 1.728,14.581 1.970 C 14.581 2.213,14.446 2.327,14.281 2.225 C 14.115 2.123,13.539 2.297,13.000 2.613 C 12.210 3.074,12.179 3.143,12.841 2.966 C 13.400 2.817,13.662 2.932,13.662 3.327 C 13.662 3.645,13.487 3.798,13.274 3.666 C 13.060 3.534,12.622 3.764,12.301 4.176 C 11.732 4.907,11.723 4.906,11.981 4.138 C 12.181 3.543,12.006 3.625,11.268 4.470 C 10.637 5.192,10.106 5.480,9.775 5.281 C 9.407 5.059,9.419 5.167,9.820 5.661 C 10.303 6.256,10.303 6.333,9.820 6.229 C 9.513 6.163,9.310 6.343,9.369 6.630 C 9.430 6.922,9.287 7.035,9.047 6.886 C 8.810 6.740,8.715 6.363,8.836 6.048 C 8.963 5.716,8.885 5.582,8.649 5.727 C 8.426 5.865,8.342 6.288,8.462 6.667 C 8.735 7.525,7.433 8.775,6.599 8.456 C 6.265 8.327,5.875 8.410,5.734 8.639 C 5.581 8.886,5.709 8.966,6.048 8.836 C 6.363 8.715,6.740 8.810,6.886 9.047 C 7.035 9.287,6.922 9.430,6.630 9.369 C 6.343 9.310,6.163 9.513,6.229 9.820 C 6.333 10.303,6.256 10.303,5.661 9.820 C 5.167 9.419,5.059 9.407,5.281 9.775 C 5.480 10.106,5.192 10.637,4.470 11.268 C 3.625 12.006,3.543 12.181,4.138 11.981 C 4.906 11.723,4.907 11.732,4.176 12.301 C 3.764 12.622,3.534 13.060,3.666 13.274 C 3.798 13.487,3.645 13.662,3.327 13.662 C 2.928 13.662,2.820 13.406,2.980 12.841 C 3.115 12.366,2.865 12.570,2.386 13.324 C 1.931 14.042,1.646 14.770,1.753 14.942 C 1.859 15.115,1.509 15.172,0.973 15.070 L 0.000 14.883 0.000 196.998 C 0.000 359.080,0.065 379.113,0.595 379.113 C 0.922 379.113,1.736 379.601,2.405 380.197 C 3.074 380.793,3.827 381.281,4.077 381.281 C 4.327 381.281,4.538 381.458,4.546 381.675 C 4.554 381.892,4.784 382.472,5.057 382.964 C 5.330 383.456,5.442 384.040,5.304 384.262 C 4.947 384.841,5.865 385.806,6.531 385.550 C 6.841 385.431,7.094 385.531,7.094 385.771 C 7.094 386.011,7.360 386.207,7.685 386.207 C 8.010 386.207,8.276 386.395,8.276 386.624 C 8.276 386.854,8.471 386.921,8.709 386.774 C 9.021 386.581,9.026 386.724,8.728 387.281 C 8.137 388.385,8.885 389.088,10.011 388.488 C 10.780 388.079,10.797 388.099,10.246 388.778 C 9.711 389.438,9.720 389.483,10.342 389.250 C 10.838 389.064,11.187 389.300,11.602 390.103 C 11.918 390.713,12.673 391.526,13.280 391.908 C 14.300 392.550,14.286 392.511,13.103 391.398 C 11.659 390.038,11.587 389.885,12.396 389.885 C 12.712 389.885,12.896 390.006,12.805 390.153 C 12.713 390.301,13.165 390.925,13.807 391.541 C 14.450 392.156,14.975 392.981,14.975 393.374 C 14.975 394.063,21.602 394.089,199.973 394.089 L 384.970 394.089 385.105 393.202 C 385.180 392.714,385.447 392.356,385.700 392.406 C 385.952 392.456,386.265 392.162,386.395 391.753 C 386.638 390.985,387.783 390.295,387.783 390.915 C 387.783 391.107,387.562 391.354,387.291 391.463 C 386.919 391.613,386.916 391.670,387.277 391.693 C 387.540 391.710,387.957 391.348,388.203 390.888 C 388.517 390.301,388.521 390.132,388.217 390.321 C 387.978 390.468,387.783 390.401,387.783 390.171 C 387.783 389.942,387.961 389.732,388.177 389.704 C 388.394 389.677,388.749 389.611,388.966 389.557 C 389.182 389.502,389.547 389.436,389.777 389.409 C 390.006 389.382,390.073 389.163,389.925 388.923 C 389.745 388.632,389.923 388.572,390.459 388.742 C 390.902 388.883,391.377 388.815,391.514 388.592 C 391.660 388.357,391.525 388.279,391.193 388.406 C 390.879 388.526,390.502 388.431,390.355 388.194 C 390.207 387.954,390.320 387.812,390.611 387.872 C 390.898 387.932,391.084 387.745,391.025 387.458 C 390.965 387.171,391.092 387.045,391.306 387.177 C 391.814 387.491,393.402 385.902,393.089 385.395 C 392.956 385.180,393.083 385.054,393.370 385.113 C 393.657 385.173,393.843 384.987,393.783 384.700 C 393.723 384.408,393.865 384.295,394.106 384.444 C 394.343 384.590,394.438 384.968,394.317 385.282 C 394.190 385.614,394.268 385.748,394.503 385.603 C 394.726 385.465,394.794 384.990,394.654 384.548 C 394.483 384.012,394.544 383.834,394.835 384.013 C 395.075 384.162,395.293 384.095,395.320 383.866 C 395.347 383.636,395.414 383.271,395.468 383.054 C 395.522 382.837,395.589 382.483,395.616 382.266 C 395.643 382.049,395.853 381.872,396.082 381.872 C 396.312 381.872,396.379 382.067,396.232 382.305 C 396.044 382.610,396.212 382.606,396.800 382.291 C 397.259 382.045,397.621 381.629,397.604 381.365 C 397.581 381.005,397.524 381.008,397.374 381.379 C 397.265 381.650,397.019 381.872,396.827 381.872 C 396.206 381.872,396.897 380.727,397.664 380.484 C 398.073 380.354,398.367 380.041,398.317 379.788 C 398.267 379.536,398.626 379.268,399.113 379.194 L 400.000 379.058 400.000 197.017 C 400.000 21.500,399.974 14.975,399.286 14.975 C 398.893 14.975,398.067 14.450,397.452 13.807 C 396.836 13.165,396.212 12.713,396.064 12.805 C 395.917 12.896,395.796 12.712,395.796 12.396 C 395.796 11.587,395.949 11.659,397.309 13.103 C 398.423 14.286,398.462 14.300,397.820 13.280 C 397.437 12.673,396.625 11.918,396.014 11.602 C 395.211 11.187,394.975 10.838,395.161 10.342 C 395.394 9.720,395.350 9.711,394.689 10.246 C 394.010 10.797,393.990 10.780,394.400 10.011 C 395.000 8.885,394.296 8.137,393.193 8.728 C 392.635 9.026,392.492 9.021,392.685 8.709 C 392.832 8.471,392.765 8.276,392.536 8.276 C 392.306 8.276,392.118 8.010,392.118 7.685 C 392.118 7.360,391.922 7.094,391.682 7.094 C 391.442 7.094,391.343 6.841,391.462 6.531 C 391.717 5.865,390.752 4.947,390.173 5.304 C 389.951 5.442,389.367 5.330,388.875 5.057 C 388.383 4.784,387.847 4.554,387.685 4.546 C 387.522 4.538,387.377 4.355,387.361 4.138 C 387.346 3.921,387.052 3.433,386.709 3.054 C 385.568 1.794,386.658 2.342,387.883 3.645 C 388.589 4.396,388.908 4.587,388.654 4.106 C 388.139 3.131,387.233 2.331,386.522 2.223 C 386.240 2.180,385.833 2.051,385.616 1.935 C 385.399 1.819,384.823 1.756,384.335 1.794 C 383.646 1.847,383.448 1.655,383.448 0.931 L 383.448 0.000 200.394 0.000 C 21.100 0.000,17.340 0.015,17.340 0.745 M224.828 51.157 C 227.862 51.377,231.626 51.840,233.191 52.186 C 234.756 52.531,238.126 52.986,240.679 53.197 C 246.498 53.676,249.615 54.251,251.600 55.210 C 252.454 55.623,253.437 55.961,253.784 55.961 C 255.003 55.961,259.133 57.177,261.084 58.111 C 262.167 58.629,264.317 59.420,265.859 59.867 C 267.402 60.315,268.869 60.927,269.118 61.227 C 269.368 61.528,270.379 62.000,271.367 62.276 C 272.354 62.553,273.640 63.257,274.224 63.841 C 274.808 64.425,275.903 65.109,276.658 65.361 C 277.412 65.613,278.808 66.438,279.760 67.195 C 280.712 67.952,281.715 68.571,281.989 68.571 C 282.263 68.571,283.197 69.148,284.064 69.852 C 284.932 70.557,286.950 72.197,288.550 73.498 C 290.150 74.798,292.428 76.996,293.611 78.383 C 294.795 79.770,296.264 81.454,296.876 82.127 C 297.488 82.799,298.316 83.970,298.715 84.729 C 299.115 85.488,299.795 86.321,300.226 86.581 C 300.657 86.841,301.232 87.728,301.503 88.552 C 301.774 89.375,302.480 90.670,303.072 91.429 C 303.665 92.187,304.460 93.771,304.839 94.948 C 305.219 96.125,305.871 97.667,306.289 98.375 C 306.706 99.083,307.371 101.238,307.765 103.164 C 308.160 105.090,308.791 107.262,309.168 107.991 C 310.964 111.464,310.992 135.311,309.204 138.719 C 308.806 139.478,308.162 141.820,307.772 143.924 C 307.352 146.188,306.587 148.685,305.897 150.043 C 305.256 151.305,304.608 152.899,304.457 153.586 C 304.306 154.274,303.663 155.490,303.027 156.290 C 302.392 157.090,301.872 158.091,301.872 158.516 C 301.872 159.278,300.429 161.646,299.805 161.909 C 299.628 161.983,299.065 162.870,298.553 163.879 C 298.041 164.889,297.248 166.052,296.791 166.465 C 296.334 166.878,295.961 167.390,295.961 167.603 C 295.961 168.679,285.167 179.619,282.479 181.268 C 281.891 181.628,281.055 182.375,280.620 182.928 C 280.185 183.481,279.247 184.168,278.536 184.456 C 277.824 184.743,277.091 185.226,276.906 185.529 C 276.722 185.833,275.552 186.563,274.306 187.152 C 273.060 187.741,271.560 188.601,270.973 189.063 C 270.386 189.524,269.029 190.193,267.958 190.549 C 266.887 190.905,266.010 191.346,266.010 191.529 C 266.010 191.711,265.571 192.383,265.034 193.021 L 264.058 194.181 267.103 194.652 C 268.778 194.912,271.059 195.560,272.172 196.092 C 273.286 196.623,275.467 197.392,277.020 197.800 C 278.572 198.207,280.499 198.989,281.301 199.536 C 282.103 200.083,283.484 200.721,284.371 200.953 C 285.258 201.186,286.293 201.719,286.673 202.138 C 287.052 202.557,288.499 203.465,289.888 204.156 C 291.277 204.847,292.414 205.542,292.414 205.700 C 292.414 205.859,293.119 206.307,293.981 206.696 C 294.844 207.084,295.823 207.821,296.158 208.332 C 296.493 208.843,296.980 209.261,297.241 209.261 C 297.502 209.261,298.429 209.966,299.301 210.829 C 300.173 211.691,302.527 214.002,304.532 215.964 C 306.537 217.926,308.177 219.788,308.177 220.102 C 308.177 220.415,308.645 220.978,309.216 221.352 C 309.788 221.727,310.497 222.611,310.792 223.318 C 311.087 224.024,311.681 224.791,312.111 225.021 C 312.541 225.251,313.267 226.309,313.725 227.371 C 314.182 228.434,314.887 229.603,315.291 229.969 C 315.696 230.335,316.313 231.498,316.664 232.554 C 317.015 233.610,317.460 234.572,317.654 234.691 C 318.225 235.044,319.595 238.415,319.873 240.149 C 320.013 241.030,320.605 242.820,321.186 244.127 C 322.164 246.323,322.721 249.474,323.312 256.158 C 323.399 257.133,323.746 259.084,324.085 260.493 C 325.035 264.441,324.967 275.385,323.972 278.678 C 323.556 280.055,323.006 283.488,322.749 286.305 C 322.394 290.197,322.046 291.950,321.303 293.596 C 320.765 294.788,319.999 296.988,319.600 298.485 C 319.202 299.981,318.523 301.683,318.092 302.266 C 317.661 302.849,317.027 304.273,316.683 305.431 C 316.339 306.589,315.731 307.903,315.332 308.350 C 314.933 308.797,314.197 310.198,313.697 311.464 C 313.196 312.730,312.538 313.861,312.236 313.977 C 311.933 314.093,311.160 315.230,310.517 316.503 C 309.874 317.776,309.197 318.818,309.012 318.818 C 308.827 318.818,308.182 319.571,307.578 320.493 C 306.399 322.291,305.894 322.894,303.575 325.282 C 302.753 326.129,301.896 327.193,301.669 327.647 C 301.443 328.101,300.809 328.688,300.260 328.952 C 299.711 329.215,299.013 329.895,298.709 330.463 C 298.405 331.031,297.681 331.742,297.100 332.042 C 296.519 332.342,295.503 333.081,294.841 333.683 C 291.850 336.405,285.837 340.887,285.176 340.887 C 284.849 340.887,283.997 341.419,283.284 342.071 C 282.572 342.722,281.186 343.549,280.206 343.910 C 279.226 344.270,278.069 344.877,277.635 345.258 C 277.202 345.639,275.872 346.333,274.680 346.800 C 273.488 347.266,272.246 347.882,271.921 348.167 C 271.281 348.730,268.610 349.687,266.404 350.146 C 265.645 350.304,264.752 350.672,264.419 350.965 C 263.344 351.910,261.146 352.631,258.014 353.067 C 256.331 353.301,254.264 353.844,253.422 354.274 C 251.789 355.107,250.120 355.412,240.197 356.694 C 236.729 357.142,232.698 357.672,231.240 357.873 C 229.690 358.086,206.830 358.195,176.264 358.134 L 123.941 358.030 122.365 357.185 C 121.498 356.720,120.433 355.948,120.000 355.469 C 119.215 354.600,119.212 354.044,119.212 204.361 L 119.212 54.126 120.298 52.701 C 121.084 51.671,121.847 51.171,123.057 50.895 C 125.290 50.384,217.454 50.622,224.828 51.157 M170.936 96.391 L 169.852 98.177 169.858 136.281 C 169.863 177.870,169.772 175.800,171.660 176.967 C 173.982 178.402,216.192 177.495,220.397 175.919 C 221.317 175.575,223.676 174.805,225.641 174.209 C 227.605 173.613,230.542 172.478,232.166 171.686 C 233.790 170.894,235.326 170.246,235.580 170.246 C 235.833 170.246,236.320 169.820,236.662 169.299 C 237.003 168.777,237.713 168.243,238.238 168.111 C 240.163 167.628,249.045 158.707,249.060 157.241 C 249.063 156.916,249.581 156.047,250.211 155.310 C 250.841 154.574,251.747 152.732,252.225 151.219 C 252.702 149.706,253.425 147.905,253.830 147.218 C 254.812 145.554,255.930 134.370,255.586 129.655 C 255.148 123.645,254.512 119.628,253.808 118.424 C 253.427 117.773,252.692 116.177,252.174 114.877 C 251.656 113.576,250.744 112.098,250.148 111.591 C 249.552 111.084,249.064 110.471,249.064 110.230 C 249.064 109.457,242.669 103.643,241.009 102.907 C 240.129 102.516,239.164 101.900,238.864 101.537 C 238.565 101.175,237.057 100.496,235.515 100.029 C 233.972 99.562,232.153 98.868,231.472 98.488 C 230.791 98.107,228.309 97.509,225.955 97.158 C 220.726 96.379,216.422 95.403,216.131 94.932 C 216.008 94.734,206.382 94.587,193.967 94.594 L 172.020 94.606 170.936 96.391 M171.279 222.825 L 169.852 224.566 169.852 267.990 L 169.852 311.413 170.800 312.539 C 171.321 313.159,171.823 313.894,171.916 314.173 C 172.206 315.041,219.652 314.897,223.054 314.017 C 226.953 313.009,229.723 312.508,233.663 312.101 C 236.355 311.822,237.618 311.491,238.723 310.775 C 239.534 310.249,241.350 309.504,242.759 309.119 C 244.167 308.734,245.549 308.193,245.828 307.917 C 246.107 307.641,247.233 306.965,248.329 306.414 C 249.426 305.863,250.967 304.882,251.754 304.233 C 252.541 303.585,253.391 303.054,253.644 303.054 C 254.198 303.054,258.916 298.502,258.916 297.967 C 258.916 297.760,259.252 297.484,259.662 297.353 C 260.072 297.223,260.628 296.585,260.898 295.934 C 261.167 295.284,261.764 294.447,262.225 294.075 C 262.686 293.703,263.416 292.605,263.847 291.635 C 264.278 290.666,265.027 289.287,265.511 288.573 C 265.995 287.859,266.761 285.815,267.213 284.031 C 267.665 282.248,268.404 280.167,268.855 279.409 C 270.124 277.275,270.127 257.097,268.859 254.975 C 268.406 254.217,267.658 252.108,267.197 250.289 C 266.736 248.470,265.946 246.430,265.443 245.757 C 264.939 245.083,264.240 243.965,263.890 243.272 C 263.540 242.580,262.809 241.534,262.267 240.949 C 261.725 240.364,261.281 239.682,261.281 239.434 C 261.281 238.785,254.196 232.512,253.463 232.512 C 253.226 232.512,252.420 231.974,251.671 231.317 C 250.922 230.659,249.453 229.838,248.406 229.491 C 247.359 229.145,246.059 228.470,245.517 227.992 C 244.898 227.445,243.287 226.856,241.182 226.406 C 239.340 226.012,237.271 225.357,236.585 224.951 C 235.291 224.186,222.179 222.276,218.128 222.263 C 217.044 222.259,215.182 221.995,213.990 221.675 C 212.218 221.199,208.257 221.092,192.264 221.088 L 172.706 221.084 171.279 222.825 M2.449 381.055 C 2.759 381.581,3.444 382.268,3.970 382.581 L 4.926 383.151 4.051 382.413 C 3.570 382.007,2.885 381.320,2.530 380.887 C 1.914 380.135,1.910 380.143,2.449 381.055 " stroke="none" fill="#0065fc" fill-rule="evenodd"></path><path id="path3" d="M123.391 52.766 C 122.439 53.153,121.286 53.981,120.830 54.608 L 120.000 55.747 120.000 203.932 C 120.000 331.243,120.079 352.306,120.561 353.449 C 121.820 356.435,117.803 356.238,177.630 356.248 C 234.667 356.257,239.410 356.120,246.897 354.251 C 248.631 353.819,251.734 353.134,253.793 352.730 C 255.852 352.326,258.512 351.605,259.704 351.128 C 260.897 350.651,263.249 349.845,264.931 349.337 C 266.614 348.829,268.476 348.149,269.069 347.826 C 269.662 347.504,272.276 346.237,274.877 345.011 C 277.478 343.785,280.138 342.389,280.788 341.909 C 281.438 341.428,282.528 340.811,283.210 340.536 C 283.892 340.262,284.792 339.718,285.211 339.327 C 285.630 338.937,286.670 338.178,287.521 337.640 C 288.373 337.103,289.511 336.286,290.052 335.825 C 290.592 335.365,292.365 333.899,293.990 332.568 C 300.106 327.560,306.354 320.604,309.661 315.122 C 310.037 314.498,310.888 313.168,311.551 312.166 C 312.214 311.165,313.687 308.305,314.824 305.813 C 315.961 303.320,317.230 300.571,317.645 299.704 C 318.342 298.246,320.171 292.031,321.414 286.897 C 323.398 278.696,323.149 254.565,321.022 248.923 C 320.462 247.437,319.629 244.626,319.171 242.676 C 318.262 238.804,313.994 229.949,311.375 226.499 C 307.565 221.483,303.276 216.395,301.659 214.975 C 300.672 214.108,299.290 212.850,298.588 212.180 C 297.886 211.509,296.564 210.466,295.651 209.861 C 294.738 209.257,293.990 208.637,293.990 208.483 C 293.990 208.330,293.148 207.720,292.118 207.128 C 291.089 206.536,288.916 205.268,287.291 204.309 C 281.392 200.830,272.156 197.224,264.657 195.473 C 259.383 194.241,259.315 194.197,261.025 193.140 C 261.816 192.651,262.463 192.108,262.463 191.933 C 262.463 191.758,264.281 190.718,266.502 189.622 C 277.776 184.061,289.701 174.387,295.093 166.428 C 296.002 165.087,296.926 163.878,297.147 163.741 C 297.368 163.605,297.810 162.868,298.129 162.105 C 298.448 161.342,299.110 160.240,299.601 159.657 C 300.091 159.074,300.818 157.804,301.216 156.835 C 301.613 155.867,302.350 154.276,302.852 153.300 C 305.435 148.288,307.700 140.021,308.575 132.414 C 308.812 130.355,309.177 127.236,309.386 125.482 C 309.899 121.182,307.664 105.760,305.937 101.675 C 305.616 100.916,304.905 99.054,304.357 97.537 C 303.809 96.020,303.126 94.512,302.841 94.186 C 302.555 93.861,302.119 93.063,301.873 92.413 C 299.311 85.651,286.882 72.555,279.452 68.791 C 278.375 68.245,277.380 67.614,277.241 67.389 C 277.102 67.164,276.079 66.519,274.967 65.956 C 273.855 65.392,272.491 64.595,271.936 64.185 C 270.861 63.390,266.700 61.685,261.390 59.863 C 259.608 59.252,257.746 58.496,257.252 58.184 C 256.758 57.873,254.227 57.228,251.626 56.751 C 249.025 56.275,246.099 55.647,245.123 55.357 C 240.747 54.055,233.124 53.213,225.616 53.203 C 223.232 53.200,219.523 52.932,217.374 52.609 C 210.914 51.635,125.828 51.778,123.391 52.766 M216.355 53.602 C 230.226 54.417,238.259 55.199,242.365 56.133 C 244.640 56.651,247.864 57.264,249.528 57.495 C 251.192 57.726,253.231 58.161,254.060 58.462 C 254.889 58.763,257.163 59.578,259.113 60.272 C 264.864 62.320,268.866 63.962,270.436 64.918 C 271.244 65.410,272.042 65.813,272.209 65.814 C 272.376 65.814,273.842 66.701,275.468 67.783 C 277.094 68.866,278.574 69.752,278.758 69.753 C 281.194 69.760,295.858 83.891,297.974 88.272 C 298.381 89.114,298.896 89.915,299.120 90.054 C 299.765 90.452,302.210 95.540,304.076 100.370 C 306.670 107.080,308.727 121.074,307.827 125.885 C 307.586 127.171,307.389 129.310,307.389 130.637 C 307.389 145.751,296.581 166.309,282.585 177.818 C 279.231 180.576,273.351 184.828,272.891 184.828 C 272.804 184.828,271.265 185.688,269.470 186.739 C 267.675 187.790,264.966 189.134,263.448 189.726 C 260.083 191.040,256.993 193.590,257.715 194.460 C 258.291 195.154,260.903 196.038,264.737 196.835 C 267.372 197.383,270.708 198.459,278.078 201.139 C 279.621 201.700,282.101 202.871,283.589 203.740 C 285.076 204.609,286.423 205.320,286.581 205.320 C 286.740 205.320,288.605 206.461,290.725 207.855 C 304.116 216.657,316.010 232.581,318.606 245.183 C 318.948 246.842,319.589 249.236,320.030 250.503 C 320.960 253.174,321.528 258.488,321.835 267.389 C 322.650 291.017,311.680 316.365,294.547 330.443 C 292.437 332.177,290.091 334.128,289.334 334.778 C 288.577 335.429,287.383 336.315,286.679 336.749 C 285.975 337.182,284.451 338.166,283.291 338.935 C 282.131 339.703,280.384 340.755,279.409 341.272 C 278.433 341.789,276.749 342.709,275.665 343.318 C 274.581 343.926,273.429 344.538,273.103 344.679 C 267.507 347.100,263.396 348.768,263.027 348.768 C 262.772 348.768,260.710 349.375,258.446 350.117 C 252.438 352.085,245.124 353.539,236.453 354.489 C 232.024 354.975,222.239 355.073,178.043 355.073 C 119.197 355.074,122.711 355.229,121.789 352.585 C 121.221 350.955,121.214 56.611,121.782 55.550 C 122.356 54.479,123.641 53.862,125.911 53.568 C 129.264 53.134,208.901 53.164,216.355 53.602 M170.990 92.482 C 170.423 92.576,169.448 93.187,168.822 93.840 L 167.685 95.027 167.572 134.870 C 167.452 177.066,167.489 178.040,169.262 179.705 L 170.214 180.600 191.806 180.386 C 213.226 180.175,213.429 180.165,217.143 179.191 C 219.202 178.650,221.596 178.093,222.463 177.952 C 244.467 174.374,261.139 151.349,258.496 128.189 C 256.221 108.265,245.240 97.775,222.209 93.527 C 216.855 92.540,175.709 91.700,170.990 92.482 M214.581 93.800 C 222.167 94.628,223.814 94.915,228.803 96.277 C 231.640 97.051,235.147 98.228,236.597 98.892 C 238.046 99.555,239.289 100.099,239.360 100.099 C 239.431 100.099,240.662 100.869,242.096 101.810 C 244.300 103.258,245.706 104.446,248.233 106.995 C 249.983 108.760,251.885 111.231,252.633 112.709 C 253.126 113.685,253.760 114.756,254.041 115.090 C 256.548 118.060,258.177 133.550,256.748 140.826 C 255.352 147.930,253.127 153.996,250.654 157.438 C 249.875 158.522,248.955 159.856,248.609 160.404 C 247.772 161.727,241.750 167.882,241.291 167.882 C 241.093 167.882,239.967 168.605,238.790 169.488 C 232.412 174.276,220.270 178.083,208.473 178.993 C 202.720 179.437,174.906 179.836,172.310 179.511 C 168.817 179.075,169.064 182.385,169.064 136.049 C 169.064 91.485,168.883 94.473,171.626 93.841 C 173.760 93.350,210.136 93.315,214.581 93.800 M171.148 218.992 C 167.287 219.507,167.412 217.705,167.562 270.542 C 167.696 317.977,167.546 315.236,170.068 316.290 C 172.104 317.140,217.251 317.096,225.492 316.236 C 234.030 315.344,245.550 311.793,249.655 308.788 C 250.305 308.312,251.136 307.813,251.500 307.678 C 254.931 306.416,262.653 298.786,265.752 293.596 C 266.334 292.621,266.982 291.557,267.192 291.232 C 274.584 279.785,274.263 252.791,266.614 242.562 C 266.127 241.911,265.357 240.670,264.901 239.803 C 263.434 237.013,256.946 231.095,252.808 228.772 C 251.724 228.164,250.394 227.387,249.852 227.045 C 248.783 226.371,242.072 223.719,239.212 222.841 C 235.216 221.615,225.270 219.847,220.099 219.444 C 214.765 219.029,173.716 218.650,171.148 218.992 M214.187 220.313 C 224.847 220.914,237.067 222.933,240.433 224.650 C 241.264 225.074,242.793 225.604,243.829 225.827 C 244.866 226.050,246.424 226.668,247.291 227.199 C 248.158 227.730,249.653 228.544,250.613 229.009 C 251.574 229.474,253.679 230.851,255.291 232.070 C 256.904 233.289,258.754 234.672,259.404 235.144 C 260.054 235.616,260.907 236.532,261.300 237.179 C 261.694 237.825,262.261 238.503,262.562 238.685 C 262.862 238.866,263.683 240.031,264.386 241.272 C 265.089 242.514,265.810 243.620,265.989 243.731 C 267.652 244.759,270.458 254.993,271.118 262.444 C 271.968 272.030,269.195 287.163,265.844 291.232 C 265.576 291.557,264.952 292.532,264.457 293.399 C 263.443 295.175,261.845 297.178,259.470 299.650 C 258.582 300.574,257.695 301.595,257.499 301.918 C 257.303 302.242,256.433 302.934,255.567 303.457 C 254.700 303.980,253.246 304.946,252.337 305.603 C 248.122 308.650,241.619 311.588,236.256 312.869 C 234.305 313.335,231.461 314.049,229.936 314.455 C 224.420 315.923,175.765 316.755,170.907 315.464 C 169.046 314.969,169.064 315.427,169.064 267.980 C 169.064 218.601,168.944 220.938,171.507 220.365 C 173.863 219.838,205.084 219.800,214.187 220.313 " stroke="none" fill="#65cbfc" fill-rule="evenodd"></path><path id="path4" d="M16.552 0.788 C 16.552 1.222,16.729 1.576,16.946 1.576 C 17.163 1.576,17.340 1.222,17.340 0.788 C 17.340 0.355,17.163 0.000,16.946 0.000 C 16.729 0.000,16.552 0.355,16.552 0.788 M386.601 2.901 C 387.143 3.508,387.542 4.123,387.488 4.268 C 387.433 4.413,387.522 4.540,387.685 4.550 C 388.352 4.590,391.272 6.321,391.460 6.787 C 391.622 7.190,391.668 7.189,391.693 6.780 C 391.710 6.499,391.159 5.967,390.469 5.597 C 389.778 5.228,388.758 4.475,388.203 3.925 C 386.597 2.334,385.426 1.585,386.601 2.901 M12.442 3.378 C 12.101 3.719,11.823 4.196,11.823 4.438 C 11.823 4.681,12.062 4.553,12.354 4.153 C 12.646 3.753,13.060 3.534,13.274 3.666 C 13.487 3.798,13.662 3.648,13.662 3.332 C 13.662 2.587,13.216 2.604,12.442 3.378 M9.064 5.911 C 8.631 6.345,8.290 6.921,8.307 7.192 C 8.332 7.584,8.379 7.583,8.538 7.190 C 8.647 6.917,8.904 6.798,9.107 6.923 C 9.311 7.049,9.429 6.917,9.369 6.630 C 9.310 6.343,9.496 6.157,9.783 6.217 C 10.070 6.276,10.202 6.158,10.076 5.955 C 9.950 5.751,10.070 5.495,10.342 5.385 C 10.736 5.226,10.736 5.179,10.345 5.154 C 10.074 5.137,9.498 5.478,9.064 5.911 M5.911 9.064 C 5.478 9.498,5.137 10.074,5.154 10.345 C 5.179 10.736,5.226 10.736,5.385 10.342 C 5.495 10.070,5.751 9.950,5.955 10.076 C 6.158 10.202,6.276 10.070,6.217 9.783 C 6.157 9.496,6.343 9.310,6.630 9.369 C 6.917 9.429,7.049 9.311,6.923 9.107 C 6.798 8.904,6.917 8.647,7.190 8.538 C 7.583 8.379,7.584 8.332,7.192 8.307 C 6.921 8.290,6.345 8.631,5.911 9.064 M392.672 8.731 C 392.494 9.019,392.564 9.079,392.863 8.894 C 393.525 8.485,394.568 9.454,394.280 10.211 C 394.092 10.707,394.144 10.737,394.529 10.354 C 394.915 9.971,394.867 9.706,394.294 9.073 C 393.472 8.164,393.074 8.080,392.672 8.731 M3.378 12.442 C 2.604 13.216,2.587 13.662,3.332 13.662 C 3.648 13.662,3.798 13.487,3.666 13.274 C 3.534 13.060,3.753 12.646,4.153 12.354 C 4.553 12.062,4.681 11.823,4.438 11.823 C 4.196 11.823,3.719 12.101,3.378 12.442 M395.796 12.451 C 395.796 12.756,395.888 12.914,395.999 12.802 C 396.110 12.691,396.728 13.090,397.372 13.689 L 398.543 14.778 397.635 13.517 C 396.613 12.096,395.796 11.623,395.796 12.451 M123.057 50.895 C 121.847 51.171,121.084 51.671,120.298 52.701 L 119.212 54.126 119.212 204.361 C 119.212 354.044,119.215 354.600,120.000 355.469 C 120.433 355.948,121.498 356.720,122.365 357.185 L 123.941 358.030 176.264 358.134 C 206.830 358.195,229.690 358.086,231.240 357.873 C 232.698 357.672,236.729 357.142,240.197 356.694 C 250.120 355.412,251.789 355.107,253.422 354.274 C 254.264 353.844,256.331 353.301,258.014 353.067 C 261.146 352.631,263.344 351.910,264.419 350.965 C 264.752 350.672,265.645 350.304,266.404 350.146 C 268.610 349.687,271.281 348.730,271.921 348.167 C 272.246 347.882,273.488 347.266,274.680 346.800 C 275.872 346.333,277.202 345.639,277.635 345.258 C 278.069 344.877,279.226 344.270,280.206 343.910 C 281.186 343.549,282.572 342.722,283.284 342.071 C 283.997 341.419,284.849 340.887,285.176 340.887 C 285.837 340.887,291.850 336.405,294.841 333.683 C 295.503 333.081,296.519 332.342,297.100 332.042 C 297.681 331.742,298.405 331.031,298.709 330.463 C 299.013 329.895,299.711 329.215,300.260 328.952 C 300.809 328.688,301.443 328.101,301.669 327.647 C 301.896 327.193,302.753 326.129,303.575 325.282 C 305.894 322.894,306.399 322.291,307.578 320.493 C 308.182 319.571,308.827 318.818,309.012 318.818 C 309.197 318.818,309.874 317.776,310.517 316.503 C 311.160 315.230,311.933 314.093,312.236 313.977 C 312.538 313.861,313.196 312.730,313.697 311.464 C 314.197 310.198,314.933 308.797,315.332 308.350 C 315.731 307.903,316.339 306.589,316.683 305.431 C 317.027 304.273,317.661 302.849,318.092 302.266 C 318.523 301.683,319.202 299.981,319.600 298.485 C 319.999 296.988,320.765 294.788,321.303 293.596 C 322.046 291.950,322.394 290.197,322.749 286.305 C 323.006 283.488,323.556 280.055,323.972 278.678 C 324.967 275.385,325.035 264.441,324.085 260.493 C 323.746 259.084,323.399 257.133,323.312 256.158 C 322.721 249.474,322.164 246.323,321.186 244.127 C 320.605 242.820,320.013 241.030,319.873 240.149 C 319.595 238.415,318.225 235.044,317.654 234.691 C 317.460 234.572,317.015 233.610,316.664 232.554 C 316.313 231.498,315.696 230.335,315.291 229.969 C 314.887 229.603,314.182 228.434,313.725 227.371 C 313.267 226.309,312.541 225.251,312.111 225.021 C 311.681 224.791,311.087 224.024,310.792 223.318 C 310.497 222.611,309.788 221.727,309.216 221.352 C 308.645 220.978,308.177 220.415,308.177 220.102 C 308.177 219.788,306.537 217.926,304.532 215.964 C 302.527 214.002,300.173 211.691,299.301 210.829 C 298.429 209.966,297.502 209.261,297.241 209.261 C 296.980 209.261,296.493 208.843,296.158 208.332 C 295.823 207.821,294.844 207.084,293.981 206.696 C 293.119 206.307,292.414 205.859,292.414 205.700 C 292.414 205.542,291.277 204.847,289.888 204.156 C 288.499 203.465,287.052 202.557,286.673 202.138 C 286.293 201.719,285.258 201.186,284.371 200.953 C 283.484 200.721,282.103 200.083,281.301 199.536 C 280.499 198.989,278.572 198.207,277.020 197.800 C 275.467 197.392,273.286 196.623,272.172 196.092 C 271.059 195.560,268.778 194.912,267.103 194.652 L 264.058 194.181 265.034 193.021 C 265.571 192.383,266.010 191.711,266.010 191.529 C 266.010 191.346,266.887 190.905,267.958 190.549 C 269.029 190.193,270.386 189.524,270.973 189.063 C 271.560 188.601,273.060 187.741,274.306 187.152 C 275.552 186.563,276.722 185.833,276.906 185.529 C 277.091 185.226,277.824 184.743,278.536 184.456 C 279.247 184.168,280.185 183.481,280.620 182.928 C 281.055 182.375,281.891 181.628,282.479 181.268 C 285.167 179.619,295.961 168.679,295.961 167.603 C 295.961 167.390,296.334 166.878,296.791 166.465 C 297.248 166.052,298.041 164.889,298.553 163.879 C 299.065 162.870,299.628 161.983,299.805 161.909 C 300.429 161.646,301.872 159.278,301.872 158.516 C 301.872 158.091,302.392 157.090,303.027 156.290 C 303.663 155.490,304.306 154.274,304.457 153.586 C 304.608 152.899,305.256 151.305,305.897 150.043 C 306.587 148.685,307.352 146.188,307.772 143.924 C 308.162 141.820,308.806 139.478,309.204 138.719 C 310.992 135.311,310.964 111.464,309.168 107.991 C 308.791 107.262,308.160 105.090,307.765 103.164 C 307.371 101.238,306.706 99.083,306.289 98.375 C 305.871 97.667,305.219 96.125,304.839 94.948 C 304.460 93.771,303.665 92.187,303.072 91.429 C 302.480 90.670,301.774 89.375,301.503 88.552 C 301.232 87.728,300.657 86.841,300.226 86.581 C 299.795 86.321,299.115 85.488,298.715 84.729 C 298.316 83.970,297.488 82.799,296.876 82.127 C 296.264 81.454,294.795 79.770,293.611 78.383 C 292.428 76.996,290.150 74.798,288.550 73.498 C 286.950 72.197,284.932 70.557,284.064 69.852 C 283.197 69.148,282.263 68.571,281.989 68.571 C 281.715 68.571,280.712 67.952,279.760 67.195 C 278.808 66.438,277.412 65.613,276.658 65.361 C 275.903 65.109,274.808 64.425,274.224 63.841 C 273.640 63.257,272.354 62.553,271.367 62.276 C 270.379 62.000,269.368 61.528,269.118 61.227 C 268.869 60.927,267.402 60.315,265.859 59.867 C 264.317 59.420,262.167 58.629,261.084 58.111 C 259.133 57.177,255.003 55.961,253.784 55.961 C 253.437 55.961,252.454 55.623,251.600 55.210 C 249.615 54.251,246.498 53.676,240.679 53.197 C 238.126 52.986,234.756 52.531,233.191 52.186 C 231.626 51.840,227.862 51.377,224.828 51.157 C 217.454 50.622,125.290 50.384,123.057 50.895 M217.374 52.609 C 219.523 52.932,223.232 53.200,225.616 53.203 C 233.124 53.213,240.747 54.055,245.123 55.357 C 246.099 55.647,249.025 56.275,251.626 56.751 C 254.227 57.228,256.758 57.873,257.252 58.184 C 257.746 58.496,259.608 59.252,261.390 59.863 C 266.700 61.685,270.861 63.390,271.936 64.185 C 272.491 64.595,273.855 65.392,274.967 65.956 C 276.079 66.519,277.102 67.164,277.241 67.389 C 277.380 67.614,278.375 68.245,279.452 68.791 C 286.882 72.555,299.311 85.651,301.873 92.413 C 302.119 93.063,302.555 93.861,302.841 94.186 C 303.126 94.512,303.809 96.020,304.357 97.537 C 304.905 99.054,305.616 100.916,305.937 101.675 C 307.664 105.760,309.899 121.182,309.386 125.482 C 309.177 127.236,308.812 130.355,308.575 132.414 C 307.700 140.021,305.435 148.288,302.852 153.300 C 302.350 154.276,301.613 155.867,301.216 156.835 C 300.818 157.804,300.091 159.074,299.601 159.657 C 299.110 160.240,298.448 161.342,298.129 162.105 C 297.810 162.868,297.368 163.605,297.147 163.741 C 296.926 163.878,296.002 165.087,295.093 166.428 C 289.701 174.387,277.776 184.061,266.502 189.622 C 264.281 190.718,262.463 191.758,262.463 191.933 C 262.463 192.108,261.816 192.651,261.025 193.140 C 259.315 194.197,259.383 194.241,264.657 195.473 C 272.156 197.224,281.392 200.830,287.291 204.309 C 288.916 205.268,291.089 206.536,292.118 207.128 C 293.148 207.720,293.990 208.330,293.990 208.483 C 293.990 208.637,294.738 209.257,295.651 209.861 C 296.564 210.466,297.886 211.509,298.588 212.180 C 299.290 212.850,300.672 214.108,301.659 214.975 C 303.276 216.395,307.565 221.483,311.375 226.499 C 313.994 229.949,318.262 238.804,319.171 242.676 C 319.629 244.626,320.462 247.437,321.022 248.923 C 323.149 254.565,323.398 278.696,321.414 286.897 C 320.171 292.031,318.342 298.246,317.645 299.704 C 317.230 300.571,315.961 303.320,314.824 305.813 C 313.687 308.305,312.214 311.165,311.551 312.166 C 310.888 313.168,310.037 314.498,309.661 315.122 C 306.354 320.604,300.106 327.560,293.990 332.568 C 292.365 333.899,290.592 335.365,290.052 335.825 C 289.511 336.286,288.373 337.103,287.521 337.640 C 286.670 338.178,285.630 338.937,285.211 339.327 C 284.792 339.718,283.892 340.262,283.210 340.536 C 282.528 340.811,281.438 341.428,280.788 341.909 C 280.138 342.389,277.478 343.785,274.877 345.011 C 272.276 346.237,269.662 347.504,269.069 347.826 C 268.476 348.149,266.614 348.829,264.931 349.337 C 263.249 349.845,260.897 350.651,259.704 351.128 C 258.512 351.605,255.852 352.326,253.793 352.730 C 251.734 353.134,248.631 353.819,246.897 354.251 C 239.410 356.120,234.667 356.257,177.630 356.248 C 117.803 356.238,121.820 356.435,120.561 353.449 C 120.079 352.306,120.000 331.243,120.000 203.932 L 120.000 55.747 120.830 54.608 C 122.777 51.935,120.302 52.066,169.295 52.042 C 206.558 52.023,214.079 52.112,217.374 52.609 M171.626 93.841 C 168.883 94.473,169.064 91.485,169.064 136.049 C 169.064 182.385,168.817 179.075,172.310 179.511 C 174.906 179.836,202.720 179.437,208.473 178.993 C 220.270 178.083,232.412 174.276,238.790 169.488 C 239.967 168.605,241.093 167.882,241.291 167.882 C 241.750 167.882,247.772 161.727,248.609 160.404 C 248.955 159.856,249.875 158.522,250.654 157.438 C 253.127 153.996,255.352 147.930,256.748 140.826 C 258.177 133.550,256.548 118.060,254.041 115.090 C 253.760 114.756,253.126 113.685,252.633 112.709 C 251.885 111.231,249.983 108.760,248.233 106.995 C 245.706 104.446,244.300 103.258,242.096 101.810 C 240.662 100.869,239.431 100.099,239.360 100.099 C 239.289 100.099,238.046 99.555,236.597 98.892 C 235.147 98.228,231.640 97.051,228.803 96.277 C 223.814 94.915,222.167 94.628,214.581 93.800 C 210.136 93.315,173.760 93.350,171.626 93.841 M216.131 94.932 C 216.422 95.403,220.726 96.379,225.955 97.158 C 228.309 97.509,230.791 98.107,231.472 98.488 C 232.153 98.868,233.972 99.562,235.515 100.029 C 237.057 100.496,238.565 101.175,238.864 101.537 C 239.164 101.900,240.129 102.516,241.009 102.907 C 242.669 103.643,249.064 109.457,249.064 110.230 C 249.064 110.471,249.552 111.084,250.148 111.591 C 250.744 112.098,251.656 113.576,252.174 114.877 C 252.692 116.177,253.427 117.773,253.808 118.424 C 254.512 119.628,255.148 123.645,255.586 129.655 C 255.930 134.370,254.812 145.554,253.830 147.218 C 253.425 147.905,252.702 149.706,252.225 151.219 C 251.747 152.732,250.841 154.574,250.211 155.310 C 249.581 156.047,249.063 156.916,249.060 157.241 C 249.045 158.707,240.163 167.628,238.238 168.111 C 237.713 168.243,237.003 168.777,236.662 169.299 C 236.320 169.820,235.833 170.246,235.580 170.246 C 235.326 170.246,233.790 170.894,232.166 171.686 C 230.542 172.478,227.605 173.613,225.641 174.209 C 223.676 174.805,221.317 175.575,220.397 175.919 C 216.192 177.495,173.982 178.402,171.660 176.967 C 169.772 175.800,169.863 177.870,169.858 136.281 L 169.852 98.177 170.936 96.391 L 172.020 94.606 193.967 94.594 C 206.382 94.587,216.008 94.734,216.131 94.932 M171.507 220.365 C 168.944 220.938,169.064 218.601,169.064 267.980 C 169.064 315.427,169.046 314.969,170.907 315.464 C 175.765 316.755,224.420 315.923,229.936 314.455 C 231.461 314.049,234.305 313.335,236.256 312.869 C 241.619 311.588,248.122 308.650,252.337 305.603 C 253.246 304.946,254.700 303.980,255.567 303.457 C 256.433 302.934,257.303 302.242,257.499 301.918 C 257.695 301.595,258.582 300.574,259.470 299.650 C 261.845 297.178,263.443 295.175,264.457 293.399 C 264.952 292.532,265.576 291.557,265.844 291.232 C 269.195 287.163,271.968 272.030,271.118 262.444 C 270.458 254.993,267.652 244.759,265.989 243.731 C 265.810 243.620,265.089 242.514,264.386 241.272 C 263.683 240.031,262.862 238.866,262.562 238.685 C 262.261 238.503,261.694 237.825,261.300 237.179 C 260.907 236.532,260.054 235.616,259.404 235.144 C 258.754 234.672,256.904 233.289,255.291 232.070 C 253.679 230.851,251.574 229.474,250.613 229.009 C 249.653 228.544,248.158 227.730,247.291 227.199 C 246.424 226.668,244.866 226.050,243.829 225.827 C 242.793 225.604,241.264 225.074,240.433 224.650 C 237.067 222.933,224.847 220.914,214.187 220.313 C 205.084 219.800,173.863 219.838,171.507 220.365 M213.990 221.675 C 215.182 221.995,217.044 222.259,218.128 222.263 C 222.179 222.276,235.291 224.186,236.585 224.951 C 237.271 225.357,239.340 226.012,241.182 226.406 C 243.287 226.856,244.898 227.445,245.517 227.992 C 246.059 228.470,247.359 229.145,248.406 229.491 C 249.453 229.838,250.922 230.659,251.671 231.317 C 252.420 231.974,253.226 232.512,253.463 232.512 C 254.196 232.512,261.281 238.785,261.281 239.434 C 261.281 239.682,261.725 240.364,262.267 240.949 C 262.809 241.534,263.540 242.580,263.890 243.272 C 264.240 243.965,264.939 245.083,265.443 245.757 C 265.946 246.430,266.736 248.470,267.197 250.289 C 267.658 252.108,268.406 254.217,268.859 254.975 C 270.127 257.097,270.124 277.275,268.855 279.409 C 268.404 280.167,267.665 282.248,267.213 284.031 C 266.761 285.815,265.995 287.859,265.511 288.573 C 265.027 289.287,264.278 290.666,263.847 291.635 C 263.416 292.605,262.686 293.703,262.225 294.075 C 261.764 294.447,261.167 295.284,260.898 295.934 C 260.628 296.585,260.072 297.223,259.662 297.353 C 259.252 297.484,258.916 297.760,258.916 297.967 C 258.916 298.502,254.198 303.054,253.644 303.054 C 253.391 303.054,252.541 303.585,251.754 304.233 C 250.967 304.882,249.426 305.863,248.329 306.414 C 247.233 306.965,246.107 307.641,245.828 307.917 C 245.549 308.193,244.167 308.734,242.759 309.119 C 241.350 309.504,239.534 310.249,238.723 310.775 C 237.618 311.491,236.355 311.822,233.663 312.101 C 229.723 312.508,226.953 313.009,223.054 314.017 C 219.652 314.897,172.206 315.041,171.916 314.173 C 171.823 313.894,171.321 313.159,170.800 312.539 L 169.852 311.413 169.852 267.990 L 169.852 224.566 171.279 222.825 L 172.706 221.084 192.264 221.088 C 208.257 221.092,212.218 221.199,213.990 221.675 M2.360 380.493 C 2.670 380.926,3.374 381.736,3.925 382.291 C 4.475 382.847,5.228 383.867,5.597 384.557 C 5.967 385.248,6.499 385.799,6.780 385.782 C 7.189 385.757,7.190 385.710,6.787 385.548 C 6.321 385.361,4.590 382.441,4.550 381.773 C 4.540 381.611,4.413 381.522,4.268 381.576 C 4.123 381.631,3.508 381.232,2.901 380.690 C 2.108 379.982,1.956 379.926,2.360 380.493 M396.484 381.508 C 395.817 382.175,395.271 382.804,395.271 382.906 C 395.271 383.243,397.158 381.688,397.601 380.985 C 398.249 379.958,397.844 380.147,396.484 381.508 M394.483 384.194 C 394.483 384.460,394.301 384.565,394.079 384.427 C 393.857 384.290,393.724 384.413,393.783 384.700 C 393.843 384.987,393.657 385.173,393.370 385.113 C 393.083 385.054,392.960 385.187,393.097 385.409 C 393.235 385.631,393.508 385.813,393.704 385.813 C 394.165 385.813,395.012 384.240,394.712 383.940 C 394.586 383.814,394.483 383.928,394.483 384.194 M8.448 387.035 C 7.998 387.764,9.741 389.235,10.340 388.631 C 10.741 388.228,10.716 388.177,10.211 388.369 C 9.491 388.643,8.476 387.627,8.856 387.012 C 8.996 386.786,9.022 386.601,8.914 386.601 C 8.805 386.601,8.596 386.796,8.448 387.035 M391.006 387.389 C 391.076 387.715,390.899 387.932,390.611 387.872 C 390.324 387.812,390.192 387.930,390.318 388.134 C 390.444 388.338,390.324 388.594,390.052 388.704 C 389.779 388.813,389.744 388.917,389.974 388.934 C 390.935 389.006,391.946 387.861,391.400 387.317 C 390.969 386.888,390.902 386.900,391.006 387.389 M387.419 390.572 C 386.059 391.933,385.869 392.338,386.897 391.690 C 387.599 391.247,389.154 389.360,388.817 389.360 C 388.715 389.360,388.086 389.905,387.419 390.572 M12.076 390.351 C 12.175 390.607,12.823 391.225,13.517 391.724 L 14.778 392.632 13.689 391.461 C 13.090 390.817,12.691 390.199,12.802 390.088 C 12.914 389.976,12.756 389.885,12.451 389.885 C 12.147 389.885,11.978 390.095,12.076 390.351 " stroke="none" fill="#36bcfc" fill-rule="evenodd"></path></g></svg>